<svg xmlns="http://www.w3.org/2000/svg" id="Lager_1" data-name="Lager 1" viewBox="0 0 157.66 260.11"><defs><linearGradient id="linear-gradient" x1="101.17" x2="101.17" y1="120.87" y2="237.32" gradientUnits="userSpaceOnUse"><stop offset="0" stop-color="#fce1da"/><stop offset="1" stop-color="#ed6d69"/></linearGradient><style>.cls-2{fill:#203478}.cls-4{fill:#fcdcc5}.cls-6{fill:#f18c94}.cls-7{fill:#fbfbfb}.cls-9{fill:#fce1da}.cls-10{fill:#fffcfd}.cls-11{fill:#fff}</style></defs><path fill="#fdd08f" d="M2.89 41.28l6.66 6.65a53.24 53.24 0 0175.29 0c.38.38.75.77 1.12 1.16l6.66-6.67-1.12-1.14a62.65 62.65 0 00-88.61 0z"/><path d="M86 52a2.89 2.89 0 01-2.07-.91c-.38-.41-.73-.77-1-1.09a50.4 50.4 0 00-71.2 0 2.9 2.9 0 01-4.1 0L.85 43.32a2.89 2.89 0 010-4.09 65.62 65.62 0 0192.7 0l1.17 1.2a2.9 2.9 0 010 4L88 51.13a2.88 2.88 0 01-2 .87zM47.2 29.47A56 56 0 0186 45l2.56-2.57A59.83 59.83 0 007 41.33l2.6 2.57a56 56 0 0137.6-14.43z" class="cls-2"/><path fill="#f49962" d="M86 49.09c-.37-.39-.74-.78-1.12-1.16a53.24 53.24 0 00-75.29 0l38.74 38.78z"/><path d="M48.33 89.61a2.92 2.92 0 01-2-.85L7.5 50a2.91 2.91 0 010-4.09 56.2 56.2 0 0179.39 0c.36.36.75.76 1.17 1.21a2.88 2.88 0 01-.06 4L50.38 88.76a2.92 2.92 0 01-2.05.85zM13.7 48l34.63 34.62 33.54-33.54A50.41 50.41 0 0013.7 48z" class="cls-2"/><path d="M28.75 42.59a3.64 3.64 0 103.64 3.64 3.64 3.64 0 00-3.64-3.64zM45.56 39.33a2.93 2.93 0 102.93 2.93 2.93 2.93 0 00-2.93-2.93zM35.89 49.87a5 5 0 105 5 5 5 0 00-5-5z" class="cls-4"/><path fill="#fefcf3" d="M65.37 66.36h139.9v13.13H65.37z" transform="rotate(-80 135.32 72.919)"/><path d="M140.62 5.04l-1.56 8.88 11.06 12.86 1.56-8.88-11.06-12.86zM137.19 24.5l-1.56 8.87 11.06 12.86 1.56-8.87-11.06-12.86zM133.76 43.95l-1.57 8.88 11.06 12.86 1.57-8.88-11.06-12.86zM130.33 63.41l-1.57 8.87 11.06 12.86 1.57-8.87-11.06-12.86zM126.9 82.86l-1.57 8.88 11.06 12.85 1.57-8.87-11.06-12.86zM123.47 102.32l-1.57 8.87 11.06 12.86 1.57-8.87-11.06-12.86zM120.04 121.77l-1.57 8.88 11.06 12.85 1.57-8.87-11.06-12.86z" class="cls-6"/><path d="M129.64 145.84a2.94 2.94 0 01-.51-.05l-12.93-2.28a2.9 2.9 0 01-2.34-3.35L138.15 2.39A2.91 2.91 0 01141.5 0l12.93 2.28a2.91 2.91 0 011.86 1.19 2.87 2.87 0 01.48 2.16l-24.29 137.82a2.9 2.9 0 01-2.84 2.39zm-9.58-7.52l7.23 1.27L150.57 7.52l-7.22-1.28z" class="cls-2"/><path d="M142.73 260.11H59.61a14.94 14.94 0 01-14.93-14.92V53.78a2.89 2.89 0 012.89-2.89h107.2a2.9 2.9 0 012.89 2.89v191.41a14.94 14.94 0 01-14.93 14.92zM50.46 56.68v188.51a9.15 9.15 0 009.15 9.14h83.12a9.15 9.15 0 009.14-9.14V56.68z" class="cls-2"/><path d="M47.57 238.77v6.42a12 12 0 0012 12h83.13a12 12 0 0012-12v-6.42z" class="cls-7"/><path d="M142.73 260.11H59.61a14.94 14.94 0 01-14.93-14.92v-6.42a2.89 2.89 0 012.89-2.89h107.2a2.89 2.89 0 012.89 2.89v6.42a14.94 14.94 0 01-14.93 14.92zm-92.27-18.45v3.53a9.15 9.15 0 009.15 9.14h83.12a9.15 9.15 0 009.14-9.14v-3.53z" class="cls-2"/><path fill="url(#linear-gradient)" d="M47.57 122.76h107.2v116.01H47.57z"/><path d="M154.77 241.66H47.57a2.89 2.89 0 01-2.89-2.89v-116a2.89 2.89 0 115.78 0v113.11h101.41V122.76a2.9 2.9 0 015.79 0v116a2.89 2.89 0 01-2.89 2.9z" class="cls-2"/><rect width="34.65" height="29.17" x="74.4" y="162.48" class="cls-9" rx="7.67" transform="rotate(-45 91.724 177.067)"/><path d="M89.79 198.67a9.78 9.78 0 01-7-2.9L73 186a9.9 9.9 0 010-14l13.66-13.65a9.89 9.89 0 0114 0l4.41 4.41a2.21 2.21 0 01-3.13 3.12l-4.4-4.4a5.46 5.46 0 00-7.72 0l-13.67 13.66a5.46 5.46 0 000 7.72l9.78 9.78a5.46 5.46 0 007.72 0l7.62-7.62a2.21 2.21 0 113.13 3.13l-7.62 7.62a9.82 9.82 0 01-6.99 2.9z" class="cls-2"/><circle cx="84.68" cy="178.95" r="2.13" class="cls-10"/><path d="M91 179.25a3 3 0 104.28 0 3 3 0 00-4.28 0z" class="cls-10"/><rect width="34.65" height="29.17" x="108.27" y="166.81" class="cls-9" rx="7.67" transform="rotate(-3.34 125.671 181.485)"/><path d="M116.36 198.75a9.9 9.9 0 01-9.86-9.31l-.81-13.81a9.9 9.9 0 019.31-10.44l7.68-.45a2.21 2.21 0 01.25 4.42l-7.67.44a5.47 5.47 0 00-5.13 5.77l.81 13.81a5.46 5.46 0 005.76 5.13l19.3-1.12a5.46 5.46 0 005.13-5.77l-.81-13.81a5.46 5.46 0 00-5.76-5.13 2.21 2.21 0 01-.26-4.42 9.89 9.89 0 0110.44 9.29l.81 13.81a9.89 9.89 0 01-9.29 10.44l-19.28 1.13z" class="cls-2"/><path d="M119 176a2.13 2.13 0 102.26 2 2.13 2.13 0 00-2.26-2zM123.63 182.57a3 3 0 103.2 2.85 3 3 0 00-3.2-2.85z" class="cls-10"/><rect width="29.17" height="34.65" x="92.65" y="121.82" class="cls-9" rx="7.67" transform="rotate(-78.46 107.231 139.142)"/><path d="M115.32 157.73a9.5 9.5 0 01-2-.2l-18.92-3.86A9.89 9.89 0 0186.72 142l2.76-13.55a2.21 2.21 0 014.34.88l-2.77 13.55a5.47 5.47 0 004.26 6.44l18.91 3.87a5.47 5.47 0 006.44-4.26l2.77-13.55a2.22 2.22 0 014.34.89L125 149.83a9.91 9.91 0 01-9.68 7.9z" class="cls-2"/><path d="M102.22 132.21a2.13 2.13 0 101.66 2.52 2.14 2.14 0 00-1.66-2.52zM105 139.77a3 3 0 102.36 3.58 3 3 0 00-2.36-3.58z" class="cls-10"/><path d="M154.77 103.87h-7.32l-25.01 3.41-16.96-7.72-18.66 4.54H67.59l-9.75-9.98-10.27 2.72v25.92h107.2v-18.89z" class="cls-7"/><path d="M131.1 125.65h-9.2a2.89 2.89 0 010-5.78h9.2a2.89 2.89 0 110 5.78z" class="cls-2"/><path d="M154.77 125.65h-10a2.89 2.89 0 110-5.78h7.05v-13.1h-4.23l-24.81 3.37a2.9 2.9 0 01-1.59-.23l-16-7.3-17.69 4.3a3.08 3.08 0 01-.68.08H67.59a2.87 2.87 0 01-2.06-.87L57 97.35l-6.49 1.72v20.8h62.28a2.89 2.89 0 010 5.78H47.57a2.89 2.89 0 01-2.89-2.89V96.84A2.9 2.9 0 0146.83 94l10.27-2.68a2.9 2.9 0 012.81.78l8.9 9.11h17.66l18.33-4.46a2.9 2.9 0 011.88.18l16.19 7.37 24.19-3.3a2.47 2.47 0 01.39 0h7.32a2.9 2.9 0 012.89 2.89v18.89a2.89 2.89 0 01-2.89 2.87z" class="cls-2"/><path d="M118.17 119a2.9 2.9 0 01-2.33-1.18l-3-4h-7.15a2.9 2.9 0 110-5.79h8.62a2.88 2.88 0 012.32 1.18l3.85 5.22a2.9 2.9 0 01-2.33 4.61zM80.75 118.11a2.85 2.85 0 01-1.08-.21l-9.54-3.9-3.88 1.68a2.89 2.89 0 11-2.3-5.31l5-2.16a2.88 2.88 0 012.23 0l9.89 4 8.58-1.55a2.89 2.89 0 011 5.69l-9.4 1.7a3.05 3.05 0 01-.5.06z" class="cls-2"/><path d="M58.07 206.45a3.57 3.57 0 01-3.57-3.57v-66.45a3.58 3.58 0 017.15 0v66.45a3.57 3.57 0 01-3.58 3.57zM58.07 90.29a3.57 3.57 0 01-3.57-3.58V60.9a3.58 3.58 0 117.15 0v25.81a3.58 3.58 0 01-3.58 3.58z" class="cls-11"/></svg>